<svg width="83" height="60" viewBox="0 0 83 60" fill="none" xmlns="http://www.w3.org/2000/svg">
<path d="M56.3901 11.4459C38.7683 35.8487 29.4679 50.545 9.70068 57.8835C-10.0666 65.222 9.6955 31.8262 25.6965 18.7353C41.6976 5.64441 57.7352 -1.42917 63.6419 1.71709C69.5487 4.86335 54.0509 44.9489 52.7723 46.1531C51.4938 47.3572 52.2868 29.9647 51.4016 29.3923C50.5163 28.8199 20.6154 52.5031 20.6154 52.5031C25.0833 51.0673 49.8215 21.1994 47.7291 23.3211C45.6367 25.4428 36.3389 54.2414 36.3389 54.2414C36.3389 54.2414 56.0445 29.9993 59.1012 30.1705C62.1579 30.3418 60.3251 42.2214 63.8961 41.1457C67.4671 40.07 82.2348 20.7767 82.2348 20.7767" stroke="white"/>
</svg>
